<svg version="1.1" xmlns="http://www.w3.org/2000/svg" viewBox="0 0 290.6 290.6"><path d="M253.1,0H14.1C6.3,0,0,6.3,0,14.1v140.6c0,7.8,6.3,14.1,14.1,14.1h178.1v-49.2c0-6.5,5.2-11.7,11.7-11.7
c6.5,0,11.7,5.2,11.7,11.7v48.3l0.5,0c1.4-4.9,5.9-8.4,11.2-8.4c5,0,9.2,3.1,10.9,7.5l1.6-0.1c1.7-4.4,5.9-7.5,10.9-7.5
c4.6,0,8.6,2.7,10.5,6.6l0.2,0c3.6-2.6,5.7-6.9,5.7-11.3V14.1C267.2,6.3,260.9,0,253.1,0z"/><path fill="#fff" d="M89.1,53.9c0-19.4-15.8-35.2-35.2-35.2H18.8V150h35.2c19.4,0,35.2-15.8,35.2-35.2c0-13-7.1-24.4-17.6-30.5
C82,78.3,89.1,66.9,89.1,53.9z M79.7,114.8c0,14.2-11.6,25.8-25.8,25.8H28.1V89.1h25.8C68.1,89.1,79.7,100.6,79.7,114.8z
 M53.9,79.7H28.1V28.1h25.8c14.2,0,25.8,11.6,25.8,25.8S68.1,79.7,53.9,79.7z"/><path fill="#fff" d="M168.8,114.8V18.8h-9.4v96.1c0,14.2-11.6,25.8-25.8,25.8s-25.8-11.6-25.8-25.8V18.8h-9.4v96.1
c0,19.4,15.8,35.2,35.2,35.2S168.8,134.2,168.8,114.8z"/><path fill="#fff" d="M220.3,115.3V93.4c15.9-2.3,28.1-15.9,28.1-32.4V18.8h-9.4v42.2c0,12.9-10.5,23.4-23.4,23.4
s-23.4-10.5-23.4-23.4V18.8h-9.4v42.2c0,16.5,12.3,30.2,28.1,32.4v11.4c-1.7-0.8-3.5-1.4-5.4-1.6c-3.5-0.4-7,0.4-10,2.2
c2.3,2.4,3.9,4,3.9,4l18.5,5.5L220.3,115.3z"/><path d="M187.5,168.8v-49.2c0-4.6,2-9.1,5.4-12.2c3-2.7,6.9-4.2,11-4.2c0.6,0,1.1,0,1.7,0.1c1.9,0.2,3.7,0.8,5.4,1.6
c5.5,2.6,9.4,8.2,9.4,14.7v0.7v1.7v34.5c2.1-1,4.5-1.6,7-1.6c4.6,0,8.7,1.9,11.7,5c3-3.1,7.1-5,11.7-5c5.9,0,11.1,3.2,13.9,7.9
c0.6-0.9,1.1-1.9,1.5-2.9c-3.5-4.9-9.2-7.9-15.4-7.9c-4.3,0-8.4,1.4-11.7,4c-3.4-2.6-7.4-4-11.7-4c-1.4,0-2.8,0.2-4.2,0.5v-30.5
v-1.7v-0.7c0-7.4-4.2-14-11-17.3c-2.1-1-4.2-1.7-6.3-1.9c-0.6-0.1-1.3-0.1-2-0.1c-4.8,0-9.4,1.8-12.9,5c-4,3.6-6.3,8.8-6.3,14.3
v49.2H187.5z"/><path d="M281.3,280.4c5.5-1.9,9.4-7.1,9.4-13.3v-86.7c0-4.6-2-9.1-5.4-12.2c-3-2.7-6.9-4.2-11-4.2
c-0.5,0-1.1,0-1.6,0.1c-2.2,0.2-4.3,1-6.2,2c-2.1-6.6-8.3-11.5-15.6-11.5c-4.6,0-8.7,1.9-11.7,5c-3-3.1-7.1-5-11.7-5
c-2.5,0-4.9,0.6-7,1.6v-34.5v-1.7v-0.7c0-6.5-3.8-12.1-9.4-14.7c-1.7-0.8-3.5-1.4-5.4-1.6c-0.6-0.1-1.1-0.1-1.7-0.1
c-4.1,0-8,1.5-11,4.2c-3.4,3.1-5.4,7.5-5.4,12.2v88.3L169.6,190c-3.9-3.9-9-5.9-14.1-5.9c-4.4,0-8.8,1.5-12.3,4.7
c-3.9,3.5-6.1,8.3-6.2,13.5c-0.1,5.1,2.9,10.1,6.6,13.7l48.6,47.5v27.2h9.4v-31.1l-51.3-50.2c-1.8-1.8-3.3-4.3-3.3-6.9
s0.9-5,2.8-6.7c1.6-1.5,3.8-2.2,5.9-2.2c2.6,0,5.3,1.1,7.4,3.1l33.7,33.9v-111c0-2,0.8-3.9,2.3-5.2c1.3-1.2,3-1.8,4.7-1.8
c0.2,0,0.5,0,0.7,0c3.5,0.4,6.3,3.7,6.3,7.7v1.7v49.2v21.1h9.4v-21.1c0-3.9,3.2-7,7-7c3.9,0,7,3.2,7,7v21.1h9.4v-21.1
c0-3.9,3.2-7,7-7c3.9,0,7,3.2,7,7v10v15.7h9.4v-15.7c0-3.9,2.8-7.3,6.3-7.7c0.3,0,0.5,0,0.8,0c1.8,0,3.4,0.6,4.7,1.8
c1.5,1.4,2.3,3.2,2.3,5.2v86.7c0,2.6-2.1,4.7-4.7,4.7h-4.7v18.8h9.4V280.4z"/></svg>