<svg version="1.1" xmlns="http://www.w3.org/2000/svg" viewBox="0 56.1 300 187.7"><path fill="#515151" d="M288.2,204.3l-131.9-69.7v-8.8c0.1,0,0.1,0,0.2,0c20.8-5.1,34.7-18.1,34.7-34.7c0-19.2-15.6-34.7-34.7-34.7
c-17.7,0-33.1,13-34.6,30.3c0,0.3-0.1,0.5-0.1,0.8c0,0,0,0.1,0,0.1c0,3.5,2.8,6.2,6.3,6.2c3.5,0,6.3-2.8,6.3-6.2h0
c0.5-5.4,3.1-9.3,5.4-11.7c4.3-4.5,10.4-7,16.7-7c12.3,0,22.2,10,22.2,22.2c0,4.7-1.9,9-5.8,12.7c-4.5,4.4-11.2,7.8-19.4,9.9
c0,0-9.5,2.9-9.7,3v2.2h0v15.8L11.8,204.3C4.8,207.9,0,214.7,0,222.6c0,11.7,10.6,21.1,23.6,21.1c0.2,0,0.7,0,0.7,0h251.4
c0,0,0.5,0,0.7,0c13,0,23.6-9.5,23.6-21.1C300,214.7,295.2,207.9,288.2,204.3z M276.4,231.2h-0.7H24.3h-0.7c-6,0-11.1-4-11.1-8.6
c0-2.9,1.9-5.6,5.1-7.3l0.1,0l0.1,0L150,145.4l132.3,69.9l0.1,0l0.1,0c3.2,1.6,5.1,4.4,5.1,7.3C287.5,227.3,282.4,231.2,276.4,231.2
z"/></svg>