<svg version="1.1" xmlns="http://www.w3.org/2000/svg" viewBox="0 0 284 284"><polygon points="83.3,72.6 57.8,208.5 137.7,124.4 104.6,93.9 111,87 169.1,140.6 273.1,67 91,67 101.8,77.7 95.1,84.4"/>
<polygon points="280,73.6 202.7,128.4 254.4,210.2"/>
<polygon points="247.6,217 195,133.8 168.4,152.7 144.6,130.8 62.7,217"/>
<polygon points="84.4,67 84.4,67 84.4,67"/>
<polygon points="56.3,217 56.3,217 56.3,217"/>
<rect x="18.8" y="90.4" width="54.3" height="9.4"/>
<rect x="9.4" y="137.3" width="54.9" height="9.4"/>
<rect y="184.2" width="53.5" height="9.4"/>
<rect x="89.1" y="38.9" width="159.4" height="9.4"/>
<rect x="56.3" y="38.9" width="23.4" height="9.4"/>
<rect x="70.3" y="15.4" width="159.4" height="9.4"/>
<rect x="37.5" y="15.4" width="23.4" height="9.4"/>
<rect x="46.9" y="235.7" width="112.5" height="9.4"/>
<rect x="14.1" y="235.7" width="23.4" height="9.4"/>
<rect x="32.8" y="259.2" width="107.8" height="9.4"/>
<rect y="259.2" width="23.4" height="9.4"/></svg>